<svg width="64" height="64" viewBox="0 0 64 64" fill="none" xmlns="http://www.w3.org/2000/svg">
<path d="M44 26C44 19.365 38.8376 14 32.5 14C26.1414 14 21 19.365 21 26C21 32.635 26.1414 38 32.5 38C38.8376 38 44 32.635 44 26Z" fill="white" stroke="#666666" stroke-width="3" stroke-miterlimit="10"/>
<path d="M53.5013 13.0535C54.3668 13.3775 54.3673 14.6016 53.502 14.9263L32.3391 22.8681C32.1125 22.9531 31.8627 22.9531 31.6361 22.868L10.495 14.9262C9.63022 14.6013 9.63072 13.3778 10.4958 13.0536L31.6369 5.13143C31.863 5.04668 32.1122 5.04664 32.3383 5.13131L53.5013 13.0535Z" fill="white" stroke="#666666" stroke-width="3" stroke-miterlimit="10"/>
<path opacity="0.3" d="M51 13.9913L31.9902 21L13 13.9913L31.9902 7L51 13.9913Z" fill="#095BFB"/>
<path d="M56.87 60C56.8467 47.8443 45.7183 38 32.0004 38C18.2592 38 7.13086 47.8443 7.13086 60H56.87Z" fill="white" stroke="#666666" stroke-width="2.86957" stroke-miterlimit="10"/>
<mask id="path-5-inside-1" fill="white">
<path fill-rule="evenodd" clip-rule="evenodd" d="M32 38H25L27.3333 43.1818L25 51.9091L32 55L39 51.9091L36.6667 43.1818L39 38H32Z"/>
</mask>
<path d="M25 38V35H20.359L22.2645 39.2318L25 38ZM27.3333 43.1818L30.2315 43.9567L30.5075 42.9244L30.0688 41.9501L27.3333 43.1818ZM25 51.9091L22.1018 51.1342L21.4383 53.6158L23.7882 54.6535L25 51.9091ZM32 55L30.7882 57.7444L32 58.2794L33.2118 57.7444L32 55ZM39 51.9091L40.2118 54.6535L42.5617 53.6158L41.8982 51.1342L39 51.9091ZM36.6667 43.1818L33.9312 41.9501L33.4925 42.9244L33.7685 43.9567L36.6667 43.1818ZM39 38L41.7355 39.2318L43.641 35H39V38ZM25 41H32V35H25V41ZM30.0688 41.9501L27.7355 36.7682L22.2645 39.2318L24.5979 44.4136L30.0688 41.9501ZM27.8982 52.684L30.2315 43.9567L24.4351 42.407L22.1018 51.1342L27.8982 52.684ZM33.2118 52.2556L26.2118 49.1647L23.7882 54.6535L30.7882 57.7444L33.2118 52.2556ZM33.2118 57.7444L40.2118 54.6535L37.7882 49.1647L30.7882 52.2556L33.2118 57.7444ZM41.8982 51.1342L39.5649 42.407L33.7685 43.9567L36.1018 52.684L41.8982 51.1342ZM39.4021 44.4136L41.7355 39.2318L36.2645 36.7682L33.9312 41.9501L39.4021 44.4136ZM39 35H32V41H39V35Z" fill="#666666" mask="url(#path-5-inside-1)"/>
<path d="M11 14V23" stroke="#666666" stroke-width="3" stroke-miterlimit="10"/>
<path d="M11 26V30" stroke="#666666" stroke-width="3" stroke-miterlimit="10"/>
</svg>
