<svg width="64" height="64" viewBox="0 0 64 64" fill="none" xmlns="http://www.w3.org/2000/svg">
<path d="M63 32C63 49.1208 49.1208 63 32 63C14.8792 63 1 49.1208 1 32C1 14.8792 14.8792 1 32 1C49.1208 1 63 14.8792 63 32Z" stroke="#333333" stroke-opacity="0.7" stroke-width="2" stroke-miterlimit="10"/>
<mask id="mask0" mask-type="alpha" maskUnits="userSpaceOnUse" x="2" y="2" width="60" height="60">
<path d="M32 62C48.5685 62 62 48.5685 62 32C62 15.4315 48.5685 2 32 2C15.4315 2 2 15.4315 2 32C2 48.5685 15.4315 62 32 62Z" fill="white"/>
</mask>
<g mask="url(#mask0)">
<path opacity="0.4" d="M20.226 30.8432C20.1887 30.9084 20.1607 31.0763 20.1607 31.0763L20.1234 31.1415C19.9274 31.8035 19.498 33.5844 19.7967 35.7569C20.254 38.8898 19.4047 41.5285 17.0901 43.9621H17.0527C16.9221 43.9621 15.8674 43.8595 15.7647 42.5075L15.7461 42.2464C15.6154 40.4003 15.3167 35.5518 12.7408 35.4213H12.6754C10.0995 35.5518 9.80079 40.4376 9.67012 42.2464V42.5448C9.56746 43.8968 8.5128 43.9993 8.38213 43.9993H8.35413C6.04882 41.5565 5.15283 38.9271 5.64749 35.7942C6.03949 32.997 5.21816 30.9178 5.21816 30.8805L5.18083 30.8432C3.6315 27.9061 3.59417 25.5378 5.14349 24.0553C6.10482 23.0949 7.62614 22.666 8.6528 22.666C9.0448 22.666 9.37146 22.7313 9.57679 22.8338C11.7514 24.0553 12.4141 24.1858 12.7034 24.1858C13.0301 24.1858 13.6648 24.018 15.8394 22.8338C16.5301 22.4422 18.8727 22.7033 20.2634 24.0553C21.71 25.4352 21.682 27.5518 20.226 30.8432Z" fill="url(#paint0_linear)"/>
<path d="M42.5507 29.5987C42.5019 29.6966 42.4653 29.9484 42.4653 29.9484L42.4164 30.0463C42.1601 31.0393 41.5987 33.7106 41.9893 36.9694C42.5873 41.6687 41.4767 45.6267 38.4498 49.2771H38.401C38.2301 49.2771 36.8509 49.1232 36.7167 47.0952L36.6923 46.7036C36.5214 43.9344 36.1308 36.6617 32.7623 36.4659H32.6768C29.3082 36.6617 28.9177 43.9904 28.7468 46.7036V47.1512C28.6126 49.1792 27.2334 49.333 27.0625 49.333H27.0259C24.0113 45.6687 22.8396 41.7246 23.4864 37.0253C23.9991 32.8295 22.925 29.7106 22.925 29.6547L22.8762 29.5987C20.8502 25.1931 20.8013 21.6407 22.8274 19.4169C24.0845 17.9764 26.0739 17.333 27.4165 17.333C27.9291 17.333 28.3562 17.4309 28.6248 17.5848C31.4685 19.4169 32.3351 19.6127 32.7134 19.6127C33.1406 19.6127 33.9706 19.361 36.8143 17.5848C37.7175 16.9973 40.781 17.389 42.5995 19.4169C44.4913 21.4869 44.4547 24.6617 42.5507 29.5987Z" fill="url(#paint1_linear)"/>
<path d="M42.5507 29.5987C42.5019 29.6966 42.4653 29.9484 42.4653 29.9484L42.4164 30.0463C42.1601 31.0393 41.5987 33.7106 41.9893 36.9694C42.5873 41.6687 41.4767 45.6267 38.4498 49.2771H38.401C38.2301 49.2771 36.8509 49.1232 36.7167 47.0952L36.6923 46.7036C36.5214 43.9344 36.1308 36.6617 32.7623 36.4659H32.6768C29.3082 36.6617 28.9177 43.9904 28.7468 46.7036V47.1512C28.6126 49.1792 27.2334 49.333 27.0625 49.333H27.0259C24.0113 45.6687 22.8396 41.7246 23.4864 37.0253C23.9991 32.8295 22.925 29.7106 22.925 29.6547L22.8762 29.5987C20.8502 25.1931 20.8013 21.6407 22.8274 19.4169C24.0845 17.9764 26.0739 17.333 27.4165 17.333C27.9291 17.333 28.3562 17.4309 28.6248 17.5848C31.4685 19.4169 32.3351 19.6127 32.7134 19.6127C33.1406 19.6127 33.9706 19.361 36.8143 17.5848C37.7175 16.9973 40.781 17.389 42.5995 19.4169C44.4913 21.4869 44.4547 24.6617 42.5507 29.5987Z" stroke="white" stroke-opacity="0.7" stroke-width="2" stroke-miterlimit="10"/>
<path opacity="0.4" d="M60.226 30.8432C60.1887 30.9084 60.1607 31.0763 60.1607 31.0763L60.1234 31.1415C59.9274 31.8035 59.498 33.5844 59.7967 35.7569C60.254 38.8898 59.4047 41.5285 57.0901 43.9621H57.0527C56.9221 43.9621 55.8674 43.8595 55.7647 42.5075L55.7461 42.2464C55.6154 40.4003 55.3167 35.5518 52.7408 35.4213H52.6754C50.0995 35.5518 49.8008 40.4376 49.6701 42.2464V42.5448C49.5675 43.8968 48.5128 43.9993 48.3821 43.9993H48.3541C46.0488 41.5565 45.1528 38.9271 45.6475 35.7942C46.0395 32.997 45.2182 30.9178 45.2182 30.8805L45.1808 30.8432C43.6315 27.9061 43.5942 25.5378 45.1435 24.0553C46.1048 23.0949 47.6261 22.666 48.6528 22.666C49.0448 22.666 49.3715 22.7313 49.5768 22.8338C51.7514 24.0553 52.4141 24.1858 52.7034 24.1858C53.0301 24.1858 53.6648 24.018 55.8394 22.8338C56.5301 22.4422 58.8727 22.7033 60.2634 24.0553C61.71 25.4352 61.682 27.5518 60.226 30.8432Z" fill="url(#paint2_linear)"/>
</g>
<defs>
<linearGradient id="paint0_linear" x1="12.6667" y1="22.666" x2="12.6667" y2="43.9993" gradientUnits="userSpaceOnUse">
<stop/>
<stop offset="1" stop-color="#3C3C3C" stop-opacity="0"/>
</linearGradient>
<linearGradient id="paint1_linear" x1="32.6654" y1="17.333" x2="32.6654" y2="49.333" gradientUnits="userSpaceOnUse">
<stop stop-color="#030DFF"/>
<stop offset="1" stop-color="#0075FF" stop-opacity="0"/>
</linearGradient>
<linearGradient id="paint2_linear" x1="52.6667" y1="22.666" x2="52.6667" y2="43.9993" gradientUnits="userSpaceOnUse">
<stop/>
<stop offset="1" stop-color="#3C3C3C" stop-opacity="0"/>
</linearGradient>
</defs>
</svg>
