<svg width="64" height="64" viewBox="0 0 64 64" fill="none" xmlns="http://www.w3.org/2000/svg">
<path d="M63 32C63 49.1208 49.1208 63 32 63C14.8792 63 1 49.1208 1 32C1 14.8792 14.8792 1 32 1C49.1208 1 63 14.8792 63 32Z" stroke="#333333" stroke-opacity="0.7" stroke-width="2" stroke-miterlimit="10"/>
<mask id="mask0" mask-type="alpha" maskUnits="userSpaceOnUse" x="2" y="2" width="60" height="60">
<path d="M32 62C48.5685 62 62 48.5685 62 32C62 15.4315 48.5685 2 32 2C15.4315 2 2 15.4315 2 32C2 48.5685 15.4315 62 32 62Z" fill="white"/>
</mask>
<g mask="url(#mask0)">
<path opacity="0.4" d="M41.9147 1.11733C41.9147 1.11733 41.3402 -8.90804 35.0819 -20.37C28.8235 -31.8319 15.2789 -41.8267 -9.90568 -37.731C-35.0903 -33.6353 -45.4906 -9.27482 -41.8021 7.26093C-38.1136 23.7967 -27.6226 27.923 -28.7412 41.2188C-29.8598 54.5147 -33.5786 71.8757 -48 85.141L21.7489 86.333C21.7489 86.333 6.11812 80.9535 10.109 70.0112C14.0998 59.0689 12.4672 55.0648 17.9697 54.6369C21.7489 54.3313 31.1213 57.9074 35.9889 57.1433C40.8565 56.4097 43.638 54.7592 43.3659 50.9691C43.0636 47.179 40.8263 42.0135 43.0938 40.1185C45.3311 38.2234 47.4172 37.1537 45.3915 35.7782C43.3357 34.4028 40.4635 34.6167 40.4635 34.6167C40.4635 34.6167 44.545 34.3111 45.6939 33.6998C46.8125 33.0885 47.5684 32.4466 46.5102 30.6738C45.452 28.9011 45.6334 26.2725 46.6614 25.4472C47.6893 24.6219 53.7058 23.002 51.529 19.0591C49.3521 15.1162 46.2986 11.0816 45.3008 9.76727C44.2729 8.45297 41.1588 4.75459 41.9147 1.11733Z" fill="url(#paint0_linear)"/>
<path d="M9.22424 52.3418C8.81649 54.513 6.72584 55.9425 4.55466 55.5348C2.38348 55.127 0.95394 53.0364 1.3617 50.8652L9.22424 52.3418ZM41.3586 30.244L45.3451 30.5714L44.6902 38.5446L40.7036 38.2171L41.3586 30.244ZM5.29297 51.6035C1.3617 50.8652 1.36228 50.8621 1.36288 50.8589C1.3631 50.8578 1.36372 50.8545 1.36416 50.8522C1.36505 50.8476 1.366 50.8426 1.36703 50.8373C1.36908 50.8268 1.3714 50.815 1.37402 50.8019C1.37926 50.7758 1.38566 50.7448 1.39332 50.709C1.40864 50.6374 1.42904 50.5466 1.45533 50.4381C1.50788 50.2211 1.58414 49.9323 1.69071 49.5827C1.90358 48.8845 2.23921 47.9381 2.75182 46.8345C3.77708 44.6272 5.52109 41.7692 8.41944 39.0265C14.3317 33.4317 24.4586 28.8557 41.3586 30.244L40.7036 38.2171C25.6216 36.9782 17.8794 41.0887 13.9181 44.8372C11.8797 46.7662 10.6858 48.744 10.0073 50.2046C9.6681 50.9349 9.46042 51.5305 9.34295 51.9158C9.28435 52.108 9.24868 52.2463 9.23059 52.321C9.22156 52.3583 9.21696 52.3795 9.21612 52.3835C9.2157 52.3854 9.21622 52.383 9.2176 52.3761C9.21829 52.3727 9.2192 52.3681 9.22031 52.3624C9.22086 52.3596 9.22147 52.3564 9.22213 52.353C9.22245 52.3513 9.22298 52.3485 9.22315 52.3476C9.22369 52.3448 9.22424 52.3418 5.29297 51.6035Z" fill="#00EBEB"/>
<path d="M41.9147 1.11733C41.9147 1.11733 41.3402 -8.90804 35.0819 -20.37C28.8235 -31.8319 15.2789 -41.8267 -9.90568 -37.731C-35.0903 -33.6353 -45.4906 -9.27482 -41.8021 7.26093C-38.1136 23.7967 -27.6226 27.923 -28.7412 41.2188C-29.8598 54.5147 -33.5786 71.8757 -48 85.141L21.7489 86.333C21.7489 86.333 6.11812 80.9535 10.1089 70.0112C14.0998 59.0689 12.4672 55.0648 17.9697 54.6369C21.7489 54.3313 31.1213 57.9074 35.9889 57.1433C40.8565 56.4097 43.638 54.7592 43.3659 50.9691C43.0636 47.179 40.8263 42.0135 43.0938 40.1185C45.3311 38.2234 47.4172 37.1537 45.3915 35.7782C43.3357 34.4028 40.4635 34.6167 40.4635 34.6167C40.4635 34.6167 44.545 34.3111 45.6939 33.6998C46.8125 33.0885 47.5684 32.4466 46.5102 30.6738C45.452 28.9011 45.6334 26.2725 46.6614 25.4472C47.6893 24.6219 53.7058 23.002 51.529 19.0591C49.3521 15.1162 46.2986 11.0816 45.3008 9.76727C44.2729 8.45297 41.1588 4.75459 41.9147 1.11733Z" stroke="#333333" stroke-opacity="0.7" stroke-width="2" stroke-miterlimit="10"/>
</g>
<defs>
<linearGradient id="paint0_linear" x1="2" y1="-38.667" x2="2" y2="86.333" gradientUnits="userSpaceOnUse">
<stop stop-color="white"/>
<stop offset="1" stop-color="#3C3C3C" stop-opacity="0"/>
</linearGradient>
</defs>
</svg>
