<svg width="64" height="64" viewBox="0 0 64 64" fill="none" xmlns="http://www.w3.org/2000/svg">
<path d="M63 32C63 49.1208 49.1208 63 32 63C14.8792 63 1 49.1208 1 32C1 14.8792 14.8792 1 32 1C49.1208 1 63 14.8792 63 32Z" stroke="#333333" stroke-opacity="0.7" stroke-width="2" stroke-miterlimit="10"/>
<mask id="mask0" mask-type="alpha" maskUnits="userSpaceOnUse" x="2" y="2" width="60" height="60">
<path d="M32 62C48.5685 62 62 48.5685 62 32C62 15.4315 48.5685 2 32 2C15.4315 2 2 15.4315 2 32C2 48.5685 15.4315 62 32 62Z" fill="white"/>
</mask>
<g mask="url(#mask0)">
<path d="M41.9147 1.11733C41.9147 1.11733 41.3402 -8.90804 35.0819 -20.37C28.8235 -31.8319 15.2789 -41.8267 -9.90568 -37.731C-35.0903 -33.6353 -45.4906 -9.27482 -41.8021 7.26093C-38.1136 23.7967 -27.6226 27.923 -28.7412 41.2188C-29.8598 54.5147 -33.5786 71.8757 -48 85.141L21.7489 86.333C21.7489 86.333 6.11812 80.9535 10.109 70.0112C14.0998 59.0689 12.4672 55.0648 17.9697 54.6369C21.7489 54.3313 31.1213 57.9074 35.9889 57.1433C40.8565 56.4097 43.638 54.7592 43.3659 50.9691C43.0636 47.179 40.8263 42.0135 43.0938 40.1185C45.3311 38.2234 47.4172 37.1537 45.3915 35.7782C43.3357 34.4028 40.4635 34.6167 40.4635 34.6167C40.4635 34.6167 44.545 34.3111 45.6939 33.6998C46.8125 33.0885 47.5684 32.4466 46.5102 30.6738C45.452 28.9011 45.6334 26.2725 46.6614 25.4472C47.6893 24.6219 53.7058 23.002 51.529 19.0591C49.3521 15.1162 46.2986 11.0816 45.3008 9.76727C44.2729 8.45297 41.1588 4.75459 41.9147 1.11733Z" stroke="#333333" stroke-opacity="0.7" stroke-width="2" stroke-miterlimit="10"/>
</g>
<rect x="28" y="37.333" width="4" height="8" fill="#B82A2A"/>
</svg>
