<svg width="96" height="96" viewBox="0 0 96 96" fill="none" xmlns="http://www.w3.org/2000/svg">
<path d="M46.372 5.14863C46.0037 4.66379 45.8087 5.14863 45.8087 5.14863L35.2388 92.0103L46.6509 92.25L46.372 5.14863ZM27.557 74.1093L26.7529 68.86L23.953 73.1604L18.2802 72.9937L21.8841 76.7874L19.6191 81.7862L24.6895 79.204L28.4884 82.819L28.2204 77.3855L33.1568 75.1487L27.557 74.1093ZM37.4188 41.7982L31.6849 43.6058L29.019 38.5242L27.2835 45.7652L21.1476 48.9499L26.0175 50.071L24.8856 57.3959L29.6215 51.2761L35.2279 52.9997L33.22 47.3156L37.4188 41.7982ZM11.0799 53.9487L7.88342 58.2556L3.75 58.9409L6.283 61.7018L3.95046 66.4434L8.08389 63.1694L11.0124 66.0141L11.2128 61.4512L14.8168 58.5225L11.0178 58.3438L11.0799 53.9487ZM18.6876 39.0428L20.5506 36.7167L18.1516 37.3192L16.8857 35.0769L15.7483 38.5242L12.6182 40.0746L14.7547 40.5932L14.2187 43.694L16.7517 40.8493L19.2847 41.7971L18.6876 39.0428ZM29.6204 26.8096L30.8253 27.5014L31.3614 25.7723L33.2189 24.3047L31.7579 24.0476V22.6694L30.224 24.4834L28.154 24.8299L28.885 26.2016L27.6191 28.0091L29.6204 26.8096ZM81.5922 13.9902C81.5922 13.9902 72.6956 8.30064 55.8492 12.2949C55.8492 12.2949 77.3748 10.2422 82.8026 26.693C82.8026 26.693 86.5514 43.3835 73.7273 56.2084C73.7273 56.2084 64.4571 66.4946 58.2755 69.0332L50.0424 3.3411C50.0424 3.3411 49.3898 2.25919 49.3898 3.94905V91.2901C49.3898 91.2901 59.4031 87.7808 60.34 86.0854L59.0294 75.1967C59.0294 75.1967 86.5514 61.4065 92.1632 38.546C92.1676 38.546 97.4112 21.728 81.5922 13.9902Z" fill="#095BFB"/>
</svg>
