<svg width="96" height="96" viewBox="0 0 96 96" fill="none" xmlns="http://www.w3.org/2000/svg">
<path d="M47.5312 67.5844C41.5219 67.5844 35.8687 65.2406 31.6219 60.9938C27.375 56.7469 25.0312 51.0938 25.0312 45.0844V14.3438C25.0312 9.38438 29.0719 5.34375 34.0312 5.34375H61.0312C65.9906 5.34375 70.0312 9.38438 70.0312 14.3438V45.0844C70.0312 51.0938 67.6875 56.7469 63.4406 60.9938C59.1938 65.25 53.5406 67.5844 47.5312 67.5844ZM34.0312 11.3438C32.3812 11.3438 31.0312 12.6938 31.0312 14.3438V45.0844C31.0312 54.1781 38.4375 61.5844 47.5312 61.5844C56.625 61.5844 64.0312 54.1781 64.0312 45.0844V14.3438C64.0312 12.6938 62.6813 11.3438 61.0312 11.3438H34.0312Z" fill="#FBC609"/>
<path d="M47.5316 89.3438C45.8723 89.3438 44.5316 88.0031 44.5316 86.3438V64.5844C44.5316 62.925 45.8723 61.5844 47.5316 61.5844C49.191 61.5844 50.5316 62.925 50.5316 64.5844V86.3438C50.5316 88.0031 49.191 89.3438 47.5316 89.3438ZM28.0316 50.9531H27.4785C18.3848 50.9531 10.9785 43.5469 10.9785 34.4531V30.6562C10.9785 25.6969 15.0191 21.6562 19.9785 21.6562H28.0316C29.691 21.6562 31.0316 22.9969 31.0316 24.6562V47.9531C31.0316 49.6031 29.691 50.9531 28.0316 50.9531ZM19.9785 27.6562C18.3285 27.6562 16.9785 29.0062 16.9785 30.6562V34.4531C16.9785 39.4031 20.4191 43.5656 25.0316 44.6625V27.6562H19.9785ZM67.0316 50.9531C65.3723 50.9531 64.0316 49.6125 64.0316 47.9531V24.6562C64.0316 22.9969 65.3723 21.6562 67.0316 21.6562H74.5316C79.491 21.6562 83.5316 25.6969 83.5316 30.6562V34.4531C83.5316 43.5469 76.1254 50.9531 67.0316 50.9531ZM70.0316 27.6562V44.5125C74.3629 43.2187 77.5316 39.1969 77.5316 34.4531V30.6562C77.5316 29.0062 76.1816 27.6562 74.5316 27.6562H70.0316Z" fill="#FBC609"/>
<path d="M67.0312 89.3438H28.0312C26.3719 89.3438 25.0312 88.0031 25.0312 86.3438C25.0312 84.6844 26.3719 83.3438 28.0312 83.3438H67.0312C68.6906 83.3438 70.0312 84.6844 70.0312 86.3438C70.0312 88.0031 68.6906 89.3438 67.0312 89.3438Z" fill="#FBC609"/>
</svg>
