<svg width="363" height="97" viewBox="0 0 363 97" fill="none" xmlns="http://www.w3.org/2000/svg">
<g clip-path="url(#clip0)">
<path d="M28.3531 94.8432H0L24.5594 0H69.6848C75.8746 0 80.467 0.39934 83.8614 1.19802C87.0561 1.9967 90.0512 3.59406 92.6469 5.79043C95.0429 7.78713 97.0396 10.5825 98.4373 13.9769C99.835 17.3713 100.434 20.9653 100.434 24.7591C100.434 25.5578 100.434 26.5561 100.234 27.5545C100.234 28.5528 100.035 29.5512 99.835 30.5495C99.835 30.9488 99.6353 31.5479 99.6353 31.9472C99.6353 32.3465 99.4356 32.9455 99.4356 33.3449C96.8399 43.3284 91.6485 51.3152 83.8614 57.1056C76.0743 62.896 66.4901 65.6914 55.3086 65.6914H35.9406L28.3531 94.8432ZM41.5314 43.528H56.1073C59.901 43.528 63.0957 42.7294 65.4917 40.9323C67.8878 39.1353 69.6848 36.5396 70.4835 33.1452C70.6832 32.3465 70.8828 31.7475 70.8828 31.1485C70.8828 30.5495 71.0825 29.9505 71.0825 29.5512C71.0825 27.3548 70.2838 25.7574 68.8861 24.7591C67.2888 23.7607 65.0924 23.3614 61.8977 23.3614H46.9224L41.5314 43.528Z" fill="url(#paint0_linear)"/>
<path d="M120 94.8432H94.2422L111.813 26.5561H137.571L120 94.8432ZM139.767 18.3696H114.01L118.802 0H144.559L139.767 18.3696Z" fill="url(#paint1_linear)"/>
<path d="M174.912 36.1405C178.306 32.5464 181.9 29.7511 185.494 27.7544C189.088 25.9573 193.082 24.959 197.075 24.959C197.474 24.959 198.073 24.959 198.273 24.959C198.672 24.959 199.072 24.959 199.471 25.1587C200.07 25.1587 200.869 25.3583 201.468 25.558C202.266 25.7577 203.065 25.9573 203.864 26.157L198.273 47.5217C197.474 47.322 196.875 47.1224 196.276 47.1224C195.677 47.1224 195.078 46.9227 194.479 46.9227C194.08 46.9227 193.481 46.723 193.082 46.723C192.483 46.723 191.884 46.723 191.285 46.723C185.494 46.723 180.502 48.3204 176.509 51.7148C172.516 55.1091 169.72 59.9012 168.123 66.2907L160.735 94.6438H135.377L152.948 26.5563H176.908L174.912 36.1405Z" fill="url(#paint2_linear)"/>
<path d="M260.768 86.6569C251.783 93.4457 241.8 96.8401 230.818 96.8401C221.633 96.8401 214.245 94.444 208.854 89.6519C203.463 84.8599 200.867 78.4704 200.867 70.4836C200.867 68.8863 201.067 67.2889 201.267 65.6915C201.466 64.0942 201.866 62.4968 202.265 60.6998C205.06 50.1173 210.851 41.3318 219.636 34.543C228.422 27.7543 238.405 24.3599 249.587 24.3599C258.771 24.3599 266.159 26.7559 271.55 31.548C276.941 36.3401 279.537 42.7295 279.537 50.5166C279.537 52.114 279.537 53.7113 279.337 55.3087C279.138 57.1057 278.738 58.7031 278.339 60.5001C275.544 71.2823 269.753 79.8681 260.768 86.6569ZM227.423 65.4919C227.224 66.8896 227.024 68.2873 227.024 69.6849C227.024 72.8797 227.823 75.076 229.22 76.6734C230.618 78.2708 232.814 78.8698 235.61 78.8698C239.603 78.8698 242.998 77.2724 245.793 74.2774C248.588 71.2823 250.785 66.6899 252.182 60.6998C252.582 58.9028 252.981 57.3054 253.181 55.708C253.38 54.3104 253.38 52.9127 253.38 51.7146C253.38 48.5199 252.582 46.3236 251.184 44.7262C249.786 43.1288 247.59 42.5298 244.795 42.5298C240.801 42.5298 237.407 43.9275 234.611 46.9226C231.816 49.9176 229.62 54.51 228.022 60.6998C227.823 62.4968 227.623 64.0942 227.423 65.4919Z" fill="url(#paint3_linear)"/>
<path d="M346.826 94.8433H318.473L313.281 78.2707L299.304 94.8433H270.951L304.096 59.302L290.719 26.5562H318.672L323.065 40.533L334.446 26.5562H362.799L332.05 59.302L346.826 94.8433Z" fill="url(#paint4_linear)"/>
</g>
<defs>
<linearGradient id="paint0_linear" x1="-48.2013" y1="12.1082" x2="600.782" y2="270.119" gradientUnits="userSpaceOnUse">
<stop stop-color="white"/>
<stop offset="1" stop-color="white" stop-opacity="0"/>
</linearGradient>
<linearGradient id="paint1_linear" x1="-37.4362" y1="-14.9747" x2="611.547" y2="243.036" gradientUnits="userSpaceOnUse">
<stop stop-color="white"/>
<stop offset="1" stop-color="white" stop-opacity="0"/>
</linearGradient>
<linearGradient id="paint2_linear" x1="-35.0473" y1="-20.9763" x2="613.936" y2="237.034" gradientUnits="userSpaceOnUse">
<stop stop-color="white"/>
<stop offset="1" stop-color="white" stop-opacity="0"/>
</linearGradient>
<linearGradient id="paint3_linear" x1="-25.4859" y1="-45.0304" x2="623.497" y2="212.98" gradientUnits="userSpaceOnUse">
<stop stop-color="white"/>
<stop offset="1" stop-color="white" stop-opacity="0"/>
</linearGradient>
<linearGradient id="paint4_linear" x1="-15.0277" y1="-71.3366" x2="633.955" y2="186.673" gradientUnits="userSpaceOnUse">
<stop stop-color="white"/>
<stop offset="1" stop-color="white" stop-opacity="0"/>
</linearGradient>
<clipPath id="clip0">
<rect width="363" height="96.6403" fill="white"/>
</clipPath>
</defs>
</svg>
