<svg width="80" height="80" viewBox="0 0 80 80" fill="none" xmlns="http://www.w3.org/2000/svg">
<g clip-path="url(#clip0)">
<path d="M51.2434 27.875C37.9425 27.875 27.1213 24.5238 27.1213 20.4035C27.1213 16.2844 37.9425 12.9331 51.2434 12.9331C64.5442 12.9331 75.3654 16.2844 75.3654 20.4035C75.3654 24.5238 64.5442 27.875 51.2434 27.875Z" stroke="url(#paint0_linear)" stroke-width="1.77809" stroke-miterlimit="10"/>
<path d="M75.3654 59.4868C75.3654 63.606 64.5442 66.9572 51.2434 66.9572C37.9425 66.9572 27.1213 63.606 27.1213 59.4868" stroke="url(#paint1_linear)" stroke-width="1.77809" stroke-miterlimit="10"/>
<path opacity="0.35" d="M51.2434 27.9163C38.5765 27.9163 28.1588 24.86 27.195 20.9899V58.9002C27.1462 59.0935 27.1213 59.2891 27.1213 59.4868C27.1213 59.6845 27.1462 59.88 27.195 60.0733V60.3617H27.2863C28.6817 64.0942 38.8929 66.9998 51.2444 66.9998C63.5959 66.9998 73.8061 64.0931 75.2025 60.3617H75.3654V20.4033C75.3654 24.5465 64.5442 27.9163 51.2434 27.9163Z" fill="url(#paint2_linear)"/>
<path opacity="0.1" d="M51.2434 27.9163C38.5765 27.9163 28.1588 24.86 27.195 20.9899V58.9002C27.1462 59.0935 27.1213 59.2891 27.1213 59.4868C27.1213 59.6845 27.1462 59.88 27.195 60.0733V60.3617H27.2863C28.6817 64.0942 38.8929 66.9998 51.2444 66.9998C63.5959 66.9998 73.8061 64.0931 75.2025 60.3617H75.3654V20.4033C75.3654 24.5465 64.5442 27.9163 51.2434 27.9163Z" fill="url(#paint3_linear)"/>
<path opacity="0.78" d="M55.848 29.6951C55.848 29.6951 55.4976 23.7769 51.68 17.0106C47.8624 10.2444 39.6001 4.34422 24.2375 6.76202C10.8676 8.10153 2.79412 23.238 4.78071 33.3218C7.03069 43.0832 13.4302 45.519 12.7479 53.3679C12.0655 61.2167 9.79707 72.169 1 79.9998H43.5468C43.5468 79.9998 34.0121 76.8242 36.4465 70.3647C38.8809 63.9052 37.885 61.5415 41.2415 61.2889C43.5468 61.1084 49.264 63.2195 52.2332 62.7684C55.2025 62.3354 56.8992 61.3611 56.7332 59.1237C56.5488 56.8863 55.184 53.837 56.5672 52.7183C57.932 51.5996 59.2045 50.9681 57.9688 50.1562C56.7148 49.3442 54.9627 49.4705 54.9627 49.4705C54.9627 49.4705 57.4524 49.2901 58.1533 48.9292C58.8356 48.5683 59.2967 48.1894 58.6512 47.1429C58.0057 46.0964 58.1164 44.5447 58.7434 44.0575C59.3705 43.5704 63.0405 42.6141 61.7127 40.2865C60.3848 37.9589 58.5221 35.5772 57.9135 34.8013C57.2865 34.0254 55.3869 31.8422 55.848 29.6951Z" fill="url(#paint4_linear)"/>
<path d="M56.8257 29.9107L56.8543 29.7776L56.8462 29.6416L55.848 29.7008C56.8462 29.6416 56.8462 29.6413 56.8462 29.641L56.8461 29.6402L56.846 29.6383L56.8457 29.6328L56.8445 29.6154C56.8435 29.6009 56.8421 29.5808 56.8401 29.5551C56.8361 29.5038 56.8299 29.4305 56.8207 29.3364C56.8024 29.1481 56.7722 28.8766 56.7239 28.5317C56.6273 27.8422 56.4583 26.8583 56.1673 25.6603C55.5856 23.2657 54.5139 20.0052 52.5509 16.5263C48.5034 9.35353 38.8778 3.27953 24.0707 5.78432C17.1184 6.9604 11.4731 11.3527 7.86524 16.6682C4.27031 21.9646 2.60149 28.3254 3.80627 33.5517C4.87389 38.183 6.85316 41.2463 8.54286 43.8615C8.70538 44.113 8.86522 44.3604 9.02131 44.6046C10.7926 47.3762 12.0627 49.7066 11.7516 53.2843C11.0761 61.0532 8.84159 71.6816 0.335148 79.2528L-1.62761 80.9998H1H22.2734H43.5468H49.7146L43.8636 79.0513L43.8633 79.0512L43.8628 79.051L43.861 79.0504L43.846 79.0453C43.8316 79.0403 43.8087 79.0323 43.7779 79.0213C43.7163 78.9992 43.6233 78.965 43.504 78.9186C43.2651 78.8258 42.9226 78.685 42.5172 78.4962C41.7017 78.1164 40.656 77.5534 39.6938 76.8125C38.7254 76.0668 37.8973 75.1836 37.4383 74.1799C36.9946 73.2097 36.8702 72.0769 37.3822 70.7184C38.0064 69.0623 38.4104 67.6692 38.7171 66.5155C38.8182 66.1352 38.9065 65.7908 38.9871 65.476C39.1578 64.8095 39.2945 64.276 39.4472 63.8163C39.6671 63.1541 39.8624 62.8444 40.0703 62.6658C40.2626 62.5005 40.5899 62.3429 41.3165 62.2882L41.3195 62.288C41.7542 62.254 42.4306 62.3283 43.3344 62.4933C44.0083 62.6163 44.7452 62.7767 45.5268 62.947C45.773 63.0006 46.0238 63.0552 46.2783 63.1099C47.3251 63.3348 48.4235 63.5582 49.4554 63.6954C50.4748 63.8311 51.4988 63.893 52.3807 63.7595C53.907 63.5367 55.2772 63.1565 56.2565 62.4266C57.3204 61.6337 57.8373 60.4925 57.7305 59.0521L57.7305 59.0521L57.7298 59.0439C57.6779 58.4142 57.5453 57.7484 57.4128 57.1296C57.3839 56.9945 57.355 56.8619 57.3267 56.7315C57.2204 56.2427 57.1208 55.785 57.0495 55.3445C56.9588 54.784 56.9307 54.3432 56.9749 54.0115C57.0169 53.6968 57.1102 53.5684 57.196 53.499L57.2011 53.4949C57.4155 53.3192 57.6144 53.1662 57.8149 53.012C57.9263 52.9264 58.0381 52.8404 58.1533 52.75C58.4429 52.5226 58.768 52.2563 59.0099 51.9675C59.244 51.6879 59.5571 51.2006 59.4483 50.574C59.3803 50.1821 59.1706 49.8787 58.9266 49.6448C59.2371 49.4539 59.6121 49.1588 59.8145 48.7018C60.1352 47.9778 59.8873 47.2457 59.5023 46.6217C59.3013 46.2958 59.2011 45.8517 59.2192 45.4381C59.2354 45.0674 59.332 44.9005 59.3558 44.8593C59.3587 44.8544 59.3605 44.8512 59.361 44.8498C59.378 44.84 59.4311 44.8093 59.5455 44.7532C59.6383 44.7077 59.7361 44.6621 59.8502 44.6089C59.9215 44.5756 59.9992 44.5394 60.086 44.4983C60.5041 44.3007 61.049 44.0314 61.5411 43.681C62.0228 43.3381 62.5574 42.8462 62.8276 42.1598C63.1214 41.4135 63.0406 40.6006 62.5812 39.7954C61.2125 37.3965 59.3069 34.9625 58.7003 34.1892L58.6958 34.1835L58.6912 34.1778C58.6577 34.1364 58.6218 34.0923 58.5839 34.0458C58.2466 33.632 57.7493 33.0219 57.3511 32.2899C56.9016 31.4636 56.6688 30.6411 56.8257 29.9107Z" stroke="url(#paint5_linear)" stroke-width="2" stroke-miterlimit="10"/>
</g>
<defs>
<linearGradient id="paint0_linear" x1="51.2434" y1="12.8239" x2="51.2434" y2="27.9839" gradientUnits="userSpaceOnUse">
<stop stop-color="#3BDBFB" stop-opacity="0"/>
<stop offset="1" stop-color="#3BDBFB"/>
</linearGradient>
<linearGradient id="paint1_linear" x1="51.2434" y1="59.4868" x2="51.2434" y2="67.0668" gradientUnits="userSpaceOnUse">
<stop stop-color="#3BDBFB" stop-opacity="0"/>
<stop offset="1" stop-color="#3BDBFB"/>
</linearGradient>
<linearGradient id="paint2_linear" x1="27.1213" y1="43.7017" x2="75.3654" y2="43.7017" gradientUnits="userSpaceOnUse">
<stop stop-color="#00D5FF"/>
<stop offset="0.5385" stop-color="white" stop-opacity="0"/>
<stop offset="1" stop-color="#00D5FF"/>
</linearGradient>
<linearGradient id="paint3_linear" x1="27.1213" y1="43.7017" x2="75.3654" y2="43.7017" gradientUnits="userSpaceOnUse">
<stop stop-color="#00D5FF"/>
<stop offset="0.5385" stop-color="#00FFFF" stop-opacity="0.5"/>
<stop offset="1" stop-color="#00D5FF"/>
</linearGradient>
<linearGradient id="paint4_linear" x1="31.5" y1="6.20947" x2="31.5" y2="79.9998" gradientUnits="userSpaceOnUse">
<stop stop-color="white"/>
<stop offset="1" stop-color="#3C3C3C" stop-opacity="0"/>
</linearGradient>
<linearGradient id="paint5_linear" x1="42.5" y1="3" x2="6.43636" y2="94.5969" gradientUnits="userSpaceOnUse">
<stop stop-color="white"/>
<stop offset="1" stop-color="white" stop-opacity="0.1"/>
</linearGradient>
<clipPath id="clip0">
<rect width="80" height="80" fill="white"/>
</clipPath>
</defs>
</svg>
