<svg width="80" height="80" viewBox="0 0 80 80" fill="none" xmlns="http://www.w3.org/2000/svg">
<path opacity="0.5" d="M67.9999 7.99683H12.0002V42.7165H67.9999V7.99683Z" fill="url(#paint0_linear)"/>
<path d="M66.8333 9.28296H13.167V41.4308H66.8333V9.28296Z" stroke="white" stroke-opacity="0.7" stroke-width="2" stroke-miterlimit="10"/>
<path opacity="0.78" d="M58.7931 41.2493C56.8279 41.2493 55.2095 42.8938 55.2095 44.8907V40.6385C55.2095 38.6417 53.5911 36.9972 51.626 36.9972C49.6608 36.9972 48.0424 38.6417 48.0424 40.6385V38.0544C48.0424 36.0575 46.424 34.413 44.4588 34.413C42.4936 34.413 40.8753 36.0575 40.8753 38.0544V27.3183C40.8753 25.3215 39.2569 23.677 37.2917 23.677C35.3265 23.677 33.7081 25.3215 33.7081 27.3183V53.301L29.5235 49.0019C28.09 47.5453 25.7087 47.5453 24.2753 49.0019C22.8418 50.4584 22.8418 52.8781 24.2753 54.3346L35.9739 66.2218C38.702 69.6282 42.8636 71.8365 47.5338 71.8365C55.487 71.8365 62.0067 65.4935 62.3767 57.5296H62.3998V44.8672C62.3767 42.8938 60.7814 41.2493 58.7931 41.2493Z" fill="url(#paint1_linear)"/>
<path d="M58.7931 41.2493C56.8279 41.2493 55.2095 42.8938 55.2095 44.8907V40.6385C55.2095 38.6417 53.5911 36.9972 51.626 36.9972C49.6608 36.9972 48.0424 38.6417 48.0424 40.6385V38.0544C48.0424 36.0575 46.424 34.413 44.4588 34.413C42.4936 34.413 40.8753 36.0575 40.8753 38.0544V27.3183C40.8753 25.3215 39.2569 23.677 37.2917 23.677C35.3265 23.677 33.7081 25.3215 33.7081 27.3183V53.301L29.5235 49.0019C28.09 47.5453 25.7087 47.5453 24.2753 49.0019C22.8418 50.4584 22.8418 52.8781 24.2753 54.3346L35.9739 66.2218C38.702 69.6282 42.8636 71.8365 47.5338 71.8365C55.487 71.8365 62.0067 65.4935 62.3767 57.5296H62.3998V44.8672C62.3767 42.8938 60.7814 41.2493 58.7931 41.2493Z" stroke="white" stroke-opacity="0.7" stroke-width="2" stroke-miterlimit="10"/>
<defs>
<linearGradient id="paint0_linear" x1="12.0002" y1="25.3568" x2="67.9999" y2="25.3568" gradientUnits="userSpaceOnUse">
<stop stop-color="#66E6FF"/>
<stop offset="1" stop-color="#00C2FF" stop-opacity="0.5"/>
</linearGradient>
<linearGradient id="paint1_linear" x1="42.8" y1="23.677" x2="42.8" y2="71.8365" gradientUnits="userSpaceOnUse">
<stop stop-color="white"/>
<stop offset="1" stop-color="#3C3C3C" stop-opacity="0"/>
</linearGradient>
</defs>
</svg>
