<svg width="80" height="80" viewBox="0 0 80 80" fill="none" xmlns="http://www.w3.org/2000/svg">
<path opacity="0.78" d="M62.6142 33.0647C62.5001 33.2727 62.4145 33.8077 62.4145 33.8077L62.3003 34.0157C61.701 36.1259 60.3883 41.8024 61.3015 48.7273C62.6998 58.7133 60.1029 67.1241 53.0254 74.8811H52.9112C52.5117 74.8811 49.2869 74.5542 48.973 70.2448L48.9159 69.4126C48.5163 63.528 47.6031 48.0734 39.7266 47.6573H39.5268C31.6503 48.0734 30.737 63.6469 30.3375 69.4126V70.3636C30.0236 74.6731 26.7988 75 26.3992 75H26.3136C19.2647 67.2133 16.525 58.8322 18.0375 48.8462C19.2361 39.9301 16.7248 33.3024 16.7248 33.1836L16.6106 33.0647C11.8733 23.7028 11.7591 16.1538 16.4964 11.4283C19.4359 8.36713 24.0876 7 27.2268 7C28.4254 7 29.4243 7.20804 30.0521 7.53497C36.7015 11.4283 38.7277 11.8444 39.6124 11.8444C40.6113 11.8444 42.5519 11.3094 49.2013 7.53497C51.3131 6.28671 58.4762 7.11888 62.7284 11.4283C67.1518 15.8269 67.0662 22.5734 62.6142 33.0647Z" fill="url(#paint0_linear)"/>
<path d="M62.6142 33.0647C62.5001 33.2727 62.4145 33.8077 62.4145 33.8077L62.3003 34.0157C61.701 36.1259 60.3882 41.8024 61.3015 48.7273C62.6998 58.7133 60.1029 67.1241 53.0254 74.8811H52.9112C52.5117 74.8811 49.2869 74.5542 48.973 70.2448L48.9159 69.4126C48.5163 63.528 47.6031 48.0734 39.7266 47.6573H39.5268C31.6502 48.0734 30.737 63.6469 30.3375 69.4126V70.3636C30.0236 74.6731 26.7988 75 26.3992 75H26.3136C19.2647 67.2133 16.525 58.8322 18.0375 48.8462C19.2361 39.9301 16.7248 33.3025 16.7248 33.1836L16.6106 33.0647C11.8733 23.7028 11.7591 16.1538 16.4964 11.4283C19.4359 8.36713 24.0876 7 27.2268 7C28.4254 7 29.4243 7.20804 30.0521 7.53497C36.7015 11.4283 38.7277 11.8444 39.6124 11.8444C40.6113 11.8444 42.5519 11.3094 49.2013 7.53497C51.3131 6.28671 58.4762 7.11888 62.7284 11.4283C67.1518 15.8269 67.0662 22.5734 62.6142 33.0647Z" stroke="white" stroke-opacity="0.7" stroke-width="2" stroke-miterlimit="10"/>
<defs>
<linearGradient id="paint0_linear" x1="39.5" y1="7" x2="39.5" y2="75" gradientUnits="userSpaceOnUse">
<stop stop-color="white"/>
<stop offset="1" stop-color="#3C3C3C" stop-opacity="0"/>
</linearGradient>
</defs>
</svg>
