<?xml version="1.0" standalone="no"?><!DOCTYPE svg PUBLIC "-//W3C//DTD SVG 1.1//EN" "http://www.w3.org/Graphics/SVG/1.1/DTD/svg11.dtd"><svg class="icon" width="32px" height="32.00px" viewBox="0 0 1024 1024" version="1.1" xmlns="http://www.w3.org/2000/svg"><path fill="#dbdbdb" d="M128 290.133333a32 32 0 0 1 20.864-29.994666l354.474667-131.712a32 32 0 0 1 22.314666 0l354.474667 131.712a32 32 0 0 1 0 59.989333l-354.474667 131.669333a32 32 0 0 1-22.314666 0L148.906667 320.128A32 32 0 0 1 128 290.133333z m123.904 0l262.613333 97.536L777.045333 290.133333l-262.613333-97.578666L251.946667 290.133333zM130.005333 500.864a32 32 0 0 1 41.130667-18.858667l343.381333 127.573334 343.338667-127.573334a32 32 0 1 1 22.272 59.989334l-354.474667 131.669333a32 32 0 0 1-22.272 0l-354.517333-131.669333a32 32 0 0 1-18.858667-41.130667zM171.136 701.738667a32 32 0 0 0-22.272 59.989333l354.517333 131.669333a32 32 0 0 0 22.272 0l354.474667-131.669333a32 32 0 1 0-22.272-59.989333l-343.338667 127.530666-343.381333-127.573333z"  /></svg>