<?xml version="1.0" standalone="no"?><!DOCTYPE svg PUBLIC "-//W3C//DTD SVG 1.1//EN" "http://www.w3.org/Graphics/SVG/1.1/DTD/svg11.dtd"><svg class="icon" width="32px" height="32.00px" viewBox="0 0 1024 1024" version="1.1" xmlns="http://www.w3.org/2000/svg"><path fill="#dbdbdb" d="M249.02656 283.523413h574.774613c12.619093 0 24.081067 5.152427 32.375467 13.446827 8.2944 8.2944 13.446827 19.75808 13.446827 32.377173v408.705707c0 12.555947-5.164373 24.00768-13.482667 32.339627l0.03584 0.03584c-8.2944 8.2944-19.756373 13.446827-32.375467 13.446826H249.02656c-12.619093 0-24.081067-5.152427-32.375467-13.446826l0.03584-0.03584c-8.318293-8.331947-13.482667-19.78368-13.482666-32.339627V329.347413c0-12.619093 5.152427-24.082773 13.446826-32.377173 8.2944-8.2944 19.756373-13.446827 32.375467-13.446827z m574.774613 36.12672H249.02656c-2.64704 0-5.0688 1.097387-6.833493 2.86208s-2.86208 4.18816-2.86208 6.8352v408.705707c0 2.69312 1.07008 5.113173 2.792106 6.833493h0.069974c1.764693 1.764693 4.186453 2.86208 6.833493 2.86208h574.774613c2.64704 0 5.0688-1.097387 6.833494-2.86208h0.069973c1.722027-1.72032 2.792107-4.140373 2.792107-6.833493V329.347413c0-2.64704-1.097387-5.070507-2.86208-6.8352-1.764693-1.764693-4.186453-2.86208-6.833494-2.86208z"  /><path fill="#dbdbdb" d="M331.547307 695.314773c-4.130133 9.038507-14.808747 13.02016-23.847254 8.890027-9.038507-4.130133-13.02016-14.808747-8.890026-23.847253 76.931413-168.27904 82.051413-181.0176 82.066773-181.055147l12.388693-28.489387 74.523307 99.807574 143.689387-127.86176 151.666346 235.3408c5.376 8.37632 2.944 19.529387-5.43232 24.905386s-19.529387 2.944-24.905386-5.43232l-128.802134-199.866026-141.61408 126.015146-61.059413-81.774933c-11.001173 24.42752-31.53408 69.700267-69.783893 153.367893z"  /><path fill="#dbdbdb" d="M182.311253 195.584h708.201814c17.646933 0 33.677653 7.20896 45.288106 18.816 11.60704 11.610453 18.816 27.641173 18.816 45.288107v677.802666c0 17.646933-7.20896 33.677653-18.816 45.288107-11.610453 11.60704-27.641173 18.816-45.288106 18.816H182.311253c-17.645227 0-33.677653-7.20896-45.284693-18.816-11.60704-11.610453-18.816-27.641173-18.816-45.288107v-677.802666c0-17.646933 7.20896-33.677653 18.816-45.288107C148.6336 202.79296 164.666027 195.584 182.311253 195.584z m708.201814 36.12672H182.311253c-7.673173 0-14.665387 3.15392-19.74272 8.231253-5.077333 5.077333-8.231253 12.071253-8.231253 19.746134v677.802666c0 7.67488 3.15392 14.6688 8.231253 19.746134 5.077333 5.077333 12.069547 8.231253 19.74272 8.231253h708.201814c7.67488 0 14.6688-3.15392 19.746133-8.231253 5.077333-5.077333 8.231253-12.071253 8.231253-19.746134v-677.802666c0-7.67488-3.15392-14.6688-8.231253-19.746134-5.077333-5.077333-12.071253-8.231253-19.746133-8.231253z"  /><path fill="#dbdbdb" d="M309.95968 846.644907c-8.610133-4.95104-18.4576-5.94432-27.415893-3.544747-8.932693 2.392747-16.955733 8.193707-21.940907 16.82944l-0.03072-0.017067c-4.95104 8.610133-5.94432 18.4576-3.544747 27.415894 2.40128 8.961707 8.180053 16.98816 16.761174 21.940906h0.07168c8.610133 4.97152 18.45248 5.97504 27.39712 3.57888 8.932693-2.392747 16.955733-8.195413 21.942613-16.831146l0.03072 0.017066c4.95104-8.610133 5.942613-18.4576 3.544747-27.414186-2.394453-8.9344-8.19712-16.95744-16.832854-21.94432l0.017067-0.03072z m-36.73088-38.398294c17.792-4.768427 37.434027-2.72896 54.705493 7.241387h0.07168c17.257813 9.965227 28.844373 25.984 33.62304 43.81696 4.765013 17.790293 2.72896 37.434027-7.241386 54.703787v0.07168c-9.965227 17.25952-25.982293 28.844373-43.815254 33.621333-17.819307 4.773547-37.490347 2.735787-54.775466-7.2448l0.018773-0.03072c-17.28512-9.99936-28.875093-25.997653-33.641813-43.782827-4.765013-17.790293-2.72896-37.434027 7.241386-54.705493v-0.07168c9.961813-17.2544 25.97888-28.842667 43.813547-33.619627zM554.4704 846.644907c-8.61184-4.95104-18.4576-5.94432-27.415893-3.544747-8.932693 2.392747-16.955733 8.193707-21.940907 16.82944l-0.03072-0.017067c-4.95104 8.610133-5.94432 18.4576-3.544747 27.415894 2.40128 8.961707 8.180053 16.98816 16.761174 21.940906h0.07168c8.610133 4.97152 18.45248 5.97504 27.39712 3.57888 8.932693-2.392747 16.955733-8.195413 21.942613-16.831146l0.03072 0.017066c4.95104-8.610133 5.942613-18.4576 3.544747-27.414186-2.394453-8.9344-8.19712-16.95744-16.832854-21.94432l0.017067-0.03072z m-36.73088-38.398294c17.792-4.768427 37.434027-2.72896 54.705493 7.241387h0.07168c17.257813 9.965227 28.844373 25.984 33.62304 43.81696 4.765013 17.790293 2.72896 37.43232-7.241386 54.703787v0.07168c-9.965227 17.257813-25.982293 28.844373-43.815254 33.621333-17.8176 4.773547-37.490347 2.735787-54.775466-7.2448l0.018773-0.03072c-17.28512-9.99936-28.875093-25.997653-33.641813-43.782827-4.765013-17.790293-2.72896-37.434027 7.241386-54.705493v-0.07168c9.961813-17.2544 25.97888-28.842667 43.813547-33.619627zM815.460693 846.644907c-8.610133-4.95104-18.455893-5.94432-27.414186-3.544747-8.932693 2.392747-16.955733 8.193707-21.940907 16.82944l-0.03072-0.017067c-4.95104 8.610133-5.94432 18.4576-3.544747 27.415894 2.399573 8.961707 8.180053 16.98816 16.761174 21.940906l0.088746 0.0512c8.603307 4.93568 18.43712 5.922133 27.38176 3.52768 8.961707-2.40128 16.984747-8.178347 21.937494-16.75776l0.032426-0.05632-0.03072-0.017066c4.969813-8.608427 5.973333-18.450773 3.575467-27.39712-2.392747-8.9344-8.19712-16.95744-16.832853-21.94432l0.017066-0.03072z m-36.729173-38.398294c17.792-4.768427 37.434027-2.72896 54.703787 7.241387h0.07168c17.256107 9.96352 28.84608 25.982293 33.62304 43.81696 4.775253 17.821013 2.7392 37.490347-7.241387 54.775467l-1.252693 2.167466-0.254294 0.254294c-10.057387 15.93856-25.3696 26.663253-42.304853 31.199573-17.790293 4.765013-37.434027 2.727253-54.703787-7.243093l-2.338133-1.349974-0.160427-0.160426c-15.93344-10.05568-26.663253-25.3696-31.197866-42.304854-4.768427-17.792-2.72896-37.434027 7.241386-54.705493v-0.07168c9.961813-17.2544 25.97888-28.842667 43.813547-33.619627zM766.03904 195.584h67.457707V64.27648h-34.321067c-9.09312 0-17.375573 3.735893-23.38816 9.74848-6.012587 6.012587-9.74848 14.29504-9.74848 23.38816V195.584z m85.521067 36.12672h-121.647787v-134.2976c0-19.06688 7.78752-36.38784 20.333227-48.930133 12.542293-12.545707 29.86496-20.333227 48.930133-20.333227h70.447787v203.56096h-18.06336z"  /></svg>