<?xml version="1.0" standalone="no"?><!DOCTYPE svg PUBLIC "-//W3C//DTD SVG 1.1//EN" "http://www.w3.org/Graphics/SVG/1.1/DTD/svg11.dtd"><svg class="icon" width="32px" height="32.00px" viewBox="0 0 1024 1024" version="1.1" xmlns="http://www.w3.org/2000/svg"><path fill="#dbdbdb" d="M986.533647 645.135059l-10.586353-1.520941c-4.306824-20.540235-10.375529-41.622588-21.699765-61.334589l13.537883-15.073882c10.089412-12.393412 11.068235-27.120941 2.454588-35.734588l-36.020706-36.532706c-8.673882-8.643765-23.205647-8.207059-34.831059 0.873412l-17.031529 11.098353a11.459765 11.459765 0 0 0-0.873412 0.617411 212.736 212.736 0 0 0-59.196235-23.175529l-0.933647-5.089882c-1.174588-11.670588-9.005176-19.636706-19.772236-21.63953L758.091294 176.941176c-4.848941-31.322353-33.295059-58.970353-64.722823-62.976L418.484706 79.028706c-29.455059-3.644235-68.291765 10.450824-88.440471 32.286118L38.339765 427.685647C18.130824 449.611294 7.664941 489.712941 14.501647 518.716235l62.704941 266.285177c7.258353 30.870588 37.797647 56.937412 69.51153 58.292706l428.212706 19.892706 32.135529 32.210823c8.734118 8.809412 24.154353 8.192 35.794823-1.310118l19.772236-16.037647a213.684706 213.684706 0 0 0 56.048941 23.717647l2.183529 15.616c0.587294 6.068706 4.577882 36.321882 24.335059 36.321883h51.501177c19.712 0 23.732706-30.223059 24.199529-35.192471l1.776941-10.194823c19.094588-4.728471 38.731294-13.221647 59.542588-25.73553l16.655059 12.709647c11.444706 9.321412 26.804706 9.682824 35.824941 0.692706l36.412236-36.713412c8.749176-8.794353 8.161882-24.229647-1.340236-35.855058l-12.649411-15.616a211.365647 211.365647 0 0 0 26.352941-61.861647l3.44847-0.798118c13.718588-1.716706 27.919059-10.616471 27.919059-24.229647v-51.516235c0.015059-13.899294-14.893176-22.919529-28.310588-24.259765zM728.350118 181.564235l45.372235 290.273883h-27.361882c-9.728 0-16.037647 4.547765-16.986353 14.08l-2.017883 10.149647c-0.060235 0.240941-0.210824-1.054118-0.240941-0.798118l-0.527059 3.102118c-25.750588 5.647059-47.450353 12.001882-67.102117 24.365176l-23.205647-20.781176c-9.472-7.755294-20.208941-9.080471-26.066824-3.192471l-9.276235 9.140706-127.081412-189.696 242.627765-159.307294c6.098824 6.595765 10.601412 14.576941 11.866353 22.663529zM574.795294 561.438118l19.395765 23.762823a210.010353 210.010353 0 0 0-26.578824 65.596235l-22.814117 3.312942c-0.271059 0.030118-26.88 3.297882-26.88 17.001411v2.95153l-249.22353-133.707294 194.108236-212.464941 127.563294 190.403764-17.573647 17.317647c-5.993412 6.008471-5.12 17.091765 2.002823 25.825883zM414.674824 108.860235l274.928941 34.981647c5.104941 0.647529 10.194824 2.650353 14.983529 5.451294L467.079529 305.227294 389.330824 111.179294c8.869647-2.349176 17.754353-3.312941 25.344-2.319059z m-62.494118 22.768941c5.662118-6.144 14.125176-11.504941 23.431529-15.570823l77.492706 193.445647-238.125176-29.108706 137.200941-148.766118z m94.991059 191.804236L258.605176 529.829647l-50.688-235.640471 239.254589 29.244236zM60.476235 447.894588l134.294589-145.603764 48.790588 226.831058-190.976-69.632c2.334118-4.382118 4.954353-8.387765 7.890823-11.595294z m46.049883 329.411765L43.821176 511.412706c-2.605176-11.023059-1.069176-25.419294 3.147295-38.475294l200.161882 72.990117-129.822118 250.277647c-5.240471-5.541647-9.185882-12.092235-10.782117-18.898823z m472.681411 47.826823l-5.135058 4.713412-426.059295-18.221176c-6.460235-0.286118-13.071059-2.575059-19.109647-6.159059l131.297883-253.138824 257.716706 138.255059v33.385412c0 13.733647 26.624 17.001412 26.925176 17.031529l19.802353 3.358118c5.059765 21.022118 14.667294 42.691765 28.596706 64.572235l-14.004706 16.082824c0 0.045176 0 0.090353-0.030118 0.12047z m405.534118-110.185411a9.336471 9.336471 0 0 1-1.807059 0.346353 13.131294 13.131294 0 0 0-1.897412 0.316235l-13.522823 3.102118c-5.767529 1.325176-10.24 5.918118-11.399529 11.715764a182.874353 182.874353 0 0 1-29.936942 69.601883 15.028706 15.028706 0 0 0 0.602353 18.130823l19.2 23.702588-29.078588 29.304471-24.681412-18.823529a15.028706 15.028706 0 0 0-17.302588-0.677647c-24.651294 15.932235-46.878118 25.479529-67.960471 29.229176a15.058824 15.058824 0 0 0-12.212705 12.242824l-3.674353 21.278117a52.404706 52.404706 0 0 1-2.063059 9.170824h-36.126118a54.362353 54.362353 0 0 1-2.138353-9.743059l-3.659294-26.413177a15.058824 15.058824 0 0 0-11.776-12.66447 183.868235 183.868235 0 0 1-65.28-27.738353 15.013647 15.013647 0 0 0-17.92 0.783059l-27.617882 22.407529-32.496941-32.557176c-0.316235-0.301176-0.752941-0.496941-1.099295-0.768-0.301176-0.436706-0.496941-0.918588-0.828235-1.310118l0.150588-0.135529c0.602353-0.542118 0.993882-1.204706 1.385412-1.867295l16.624941-19.094588a7.469176 7.469176 0 0 0 0.587294-9.050353c-15.826824-23.777882-26.172235-47.149176-30.72-69.481411a7.469176 7.469176 0 0 0-6.610823-5.948236l-25.118118-3.855059c-4.909176-0.496941-13.372235-2.695529-13.372235-4.201411v-48.805647c0-1.520941 8.357647-3.659294 13.266824-4.156236l28.235294-3.794823a7.424 7.424 0 0 0 6.671058-6.038588 195.011765 195.011765 0 0 1 28.476236-70.415059 7.484235 7.484235 0 0 0-0.466824-8.809412l-22.814117-27.964235c-2.469647-3.026824-2.785882-5.797647-3.026824-5.797647l36.276706-36.246589c0.783059-0.105412 4.035765 0.783059 6.987294 3.192471l27.271529 24.214588c2.544941 2.258824 6.354824 2.514824 9.200942 0.557177 20.163765-13.929412 43.264-20.766118 71.740235-26.75953 0.120471-0.030118 0.180706-0.135529 0.301176-0.165647a7.378824 7.378824 0 0 0 3.388236-1.897412c0.165647-0.165647 0.286118-0.331294 0.436706-0.512a7.273412 7.273412 0 0 0 1.731764-3.584l3.523765-17.076705c0.421647-4.065882 2.364235-0.978824 2.183529-0.978824h45.839059l2.288941 12.845176a15.043765 15.043765 0 0 0 12.212706 12.182589 184.32 184.32 0 0 1 68.99953 27.361882 15.058824 15.058824 0 0 0 19.245176-2.334118l5.406118-5.797647 16.082823-10.496c0.180706-0.120471 0.331294-0.240941 0.496942-0.331294l27.482352 27.873883-20.178823 22.407529a15.058824 15.058824 0 0 0-1.204706 18.627765c14.697412 21.248 20.886588 46.471529 25.419294 70.580706a15.058824 15.058824 0 0 0 12.664471 12.137411l21.775059 3.102118a11.188706 11.188706 0 0 1 1.852235 0.361412v39.514353zM774.128941 541.786353c-84.359529 0-152.967529 68.623059-152.967529 152.967529s68.623059 152.967529 152.967529 152.96753 152.967529-68.623059 152.96753-152.96753-68.608-152.967529-152.96753-152.967529z m0 290.876235c-76.047059 0-137.908706-61.861647-137.908706-137.908706s61.861647-137.908706 137.908706-137.908706 137.908706 61.861647 137.908706 137.908706-61.861647 137.908706-137.908706 137.908706zM774.128941 639.292235c-30.569412 0-55.461647 24.877176-55.461647 55.461647s24.877176 55.461647 55.461647 55.461647 55.461647-24.877176 55.461647-55.461647-24.892235-55.461647-55.461647-55.461647z m0 80.805647c-13.974588 0-25.344-11.369412-25.344-25.344s11.369412-25.344 25.344-25.344 25.344 11.369412 25.344 25.344-11.369412 25.344-25.344 25.344z" /></svg>