<?xml version="1.0" standalone="no"?><!DOCTYPE svg PUBLIC "-//W3C//DTD SVG 1.1//EN" "http://www.w3.org/Graphics/SVG/1.1/DTD/svg11.dtd"><svg class="icon" width="32px" height="32.00px" viewBox="0 0 1024 1024" version="1.1" xmlns="http://www.w3.org/2000/svg"><path fill="#dbdbdb" d="M678.3 294.1l-306-1.4L258.5 818l251.8 141.9 262.9-143.4-94.9-522.4zM303.8 797.6l100.7-464.7 240.3 1.1 83.7 461.2-218 118.9-206.7-116.5zM376.9 267.5l298.9-0.7 40.6-151.4c3.3-12.2 0.7-25-7-35.1-7.7-10-19.4-15.8-32-15.8h-0.1l-304.9 0.5c-12.8 0-24.5 5.9-32.2 16.1-7.7 10.2-10.1 23.1-6.5 35.4l43.2 151z m-4.7-162.1c0.1-0.1 0.2-0.1 0.3-0.1l304.9-0.5c0.1 0 0.2 0 0.3 0.1 0.1 0.1 0.1 0.2 0.1 0.3L645.1 227l-238.1 0.5-34.9-121.8c0-0.2 0-0.2 0.1-0.3z"  /><path fill="#dbdbdb" d="M379.008 600.629l188.394-245.447 31.732 24.356L410.74 624.985zM405.87 723.043l188.393-245.447 31.732 24.356-188.393 245.447zM448.975 832.692L637.37 587.245l31.732 24.356-188.394 245.447z"  /></svg>