<svg width="48" height="48" viewBox="0 0 48 48" fill="none" xmlns="http://www.w3.org/2000/svg">
<path d="M39.558 7.85107C35.7939 7.85107 32.1839 9.3782 29.5222 12.0965C26.8605 14.8148 25.3652 18.5016 25.3652 22.3458C25.3652 26.1901 26.8605 29.8769 29.5222 32.5952C32.1839 35.3135 35.7939 36.8406 39.558 36.8406L39.558 32.7945C36.8446 32.7945 34.2423 31.6937 32.3236 29.7342C30.405 27.7747 29.3271 25.117 29.3271 22.3458C29.3271 19.5747 30.405 16.917 32.3236 14.9575C34.2423 12.998 36.8446 11.8972 39.558 11.8972L39.558 7.85107Z" stroke="white" stroke-width="1.2079" stroke-miterlimit="10"/>
<rect x="9.66406" y="17.5142" width="10.8711" height="6.64344" stroke="white" stroke-width="1.2079" stroke-miterlimit="10"/>
<rect width="5.43554" height="4.22764" transform="matrix(1 0 0 -1 12.6836 28.3853)" stroke="white" stroke-width="1.2079" stroke-miterlimit="10"/>
<rect width="4.83159" height="3.01974" transform="matrix(-1 0 0 1 25.3652 19.3262)" stroke="white" stroke-width="1.2079" stroke-miterlimit="10"/>
<rect x="39.2559" y="6.64355" width="4.22764" height="6.64344" stroke="white" stroke-width="1.2079" stroke-miterlimit="10"/>
<rect x="39.2559" y="30.8013" width="4.22764" height="6.64344" stroke="white" stroke-width="1.2079" stroke-miterlimit="10"/>
<rect x="6.03906" y="28.3853" width="18.1185" height="9.05923" stroke="white" stroke-width="1.2079" stroke-miterlimit="10"/>
<circle cx="9.66189" cy="39.8601" r="2.4158" stroke="white" stroke-width="1.2079" stroke-miterlimit="10"/>
<circle cx="20.5349" cy="39.8601" r="2.4158" stroke="white" stroke-width="1.2079" stroke-miterlimit="10"/>
</svg>
