<svg width="48" height="48" viewBox="0 0 48 48" fill="none" xmlns="http://www.w3.org/2000/svg">
<path d="M3.62348 11.4749C3.62348 10.4742 4.43467 9.66303 5.43533 9.66303H32.8074C33.3047 9.66303 33.7802 9.86747 34.1223 10.2284L44.1951 20.8546C44.5142 21.1912 44.692 21.6373 44.692 22.1011V30.8012C44.692 31.8019 43.8808 32.6131 42.8802 32.6131H5.43533C4.43467 32.6131 3.62348 31.8019 3.62348 30.8012V11.4749Z" stroke="white" stroke-width="1.2079"/>
<path d="M38.1298 14.4946H34.4256C33.0914 14.4946 32.0098 15.5762 32.0098 16.9104V19.9302C32.0098 20.5973 32.5506 21.1381 33.2177 21.1381H43.4848" stroke="white" stroke-width="1.2079"/>
<circle cx="12.6823" cy="35.029" r="3.01974" stroke="white" stroke-width="1.2079"/>
<circle cx="36.237" cy="35.029" r="3.01974" stroke="white" stroke-width="1.2079"/>
<rect x="13.5891" y="16.6086" width="0.603949" height="10.8711" stroke="white" stroke-width="0.603949"/>
<rect x="18.1176" y="21.1381" width="3.01974" height="6.03949" stroke="white" stroke-width="1.2079"/>
<rect x="20.8352" y="16.6086" width="0.603949" height="6.64344" stroke="white" stroke-width="0.603949"/>
<mask id="path-8-inside-1" fill="white">
<path d="M13.2871 27.7814C13.2871 28.4485 13.8279 28.9893 14.495 28.9893H24.7621C25.4292 28.9893 25.97 28.4485 25.97 27.7814H13.2871Z"/>
</mask>
<path d="M14.495 27.7814H24.7621V30.1972H14.495V27.7814ZM25.97 28.9893H13.2871V26.5735H25.97V28.9893ZM24.7621 27.7814H27.1779C27.1779 29.1156 26.0963 30.1972 24.7621 30.1972V27.7814ZM14.495 30.1972C13.1608 30.1972 12.0792 29.1156 12.0792 27.7814H14.495H14.495V30.1972Z" fill="white" mask="url(#path-8-inside-1)"/>
<rect x="25.0617" y="12.9851" width="0.603949" height="14.4948" stroke="white" stroke-width="0.603949"/>
</svg>
