<svg width="48" height="48" viewBox="0 0 48 48" fill="none" xmlns="http://www.w3.org/2000/svg">
<circle cx="24.1582" cy="20.5337" r="10.8711" stroke="white" stroke-width="1.2079" stroke-miterlimit="10"/>
<circle cx="24.1578" cy="20.5342" r="4.83159" stroke="white" stroke-width="1.2079" stroke-miterlimit="10"/>
<path d="M9.66232 15.0977H7.85048V16.3056H9.66232V15.0977ZM11.4742 32.612V16.9096H10.2663V32.612H11.4742ZM36.2375 33.2159H12.0781V34.4238H36.2375V33.2159ZM38.0494 32.612V16.9096H36.8415V32.612H38.0494ZM38.6533 16.3056H40.4652V15.0977H38.6533V16.3056ZM41.0691 16.9096V38.0478H42.277V16.9096H41.0691ZM40.4652 38.6517H37.4456V39.8596H40.4652V38.6517ZM10.8703 39.8594H37.4453V38.6515H10.8703V39.8594ZM6.64283 39.8596H10.8701V38.6517H6.64283V39.8596ZM6.03863 33.8199V39.2554H7.24653V33.8199H6.03863ZM6.03863 16.9096V33.8199H7.24653V16.9096H6.03863ZM6.64283 38.6517C6.97624 38.6517 7.24653 38.922 7.24653 39.2554H6.03863C6.03863 39.5891 6.30914 39.8596 6.64283 39.8596V38.6517ZM10.2663 39.2555C10.2663 38.9221 10.5366 38.6517 10.8701 38.6517V39.8596C11.2037 39.8596 11.4742 39.5892 11.4742 39.2555H10.2663ZM10.8703 38.6515C10.5367 38.6515 10.2663 38.9219 10.2663 39.2555H11.4742C11.4742 39.589 11.2038 39.8594 10.8703 39.8594V38.6515ZM38.0494 39.2555C38.0494 38.9246 37.7816 38.6515 37.4453 38.6515V39.8594C37.1091 39.8594 36.8415 39.5863 36.8415 39.2555H38.0494ZM37.4456 38.6517C37.7791 38.6517 38.0494 38.9221 38.0494 39.2555H36.8415C36.8415 39.5892 37.1119 39.8596 37.4456 39.8596V38.6517ZM41.0691 38.0478C41.0691 38.3813 40.7987 38.6517 40.4652 38.6517V39.8596C41.4658 39.8596 42.277 39.0484 42.277 38.0478H41.0691ZM40.4652 16.3056C40.7987 16.3056 41.0691 16.576 41.0691 16.9096H42.277C42.277 15.9089 41.4658 15.0977 40.4652 15.0977V16.3056ZM38.0494 16.9096C38.0494 16.576 38.3198 16.3056 38.6533 16.3056V15.0977C37.6527 15.0977 36.8415 15.9089 36.8415 16.9096H38.0494ZM36.2375 34.4238C37.2382 34.4238 38.0494 33.6126 38.0494 32.612H36.8415C36.8415 32.9455 36.5711 33.2159 36.2375 33.2159V34.4238ZM10.2663 32.612C10.2663 33.6126 11.0775 34.4238 12.0781 34.4238V33.2159C11.7446 33.2159 11.4742 32.9455 11.4742 32.612H10.2663ZM7.85048 15.0977C6.84982 15.0977 6.03863 15.9089 6.03863 16.9096H7.24653C7.24653 16.576 7.51692 16.3056 7.85048 16.3056V15.0977ZM9.66232 16.3056C9.99587 16.3056 10.2663 16.576 10.2663 16.9096H11.4742C11.4742 15.9089 10.663 15.0977 9.66232 15.0977V16.3056Z" fill="white"/>
</svg>
