<svg width="48" height="48" viewBox="0 0 48 48" fill="none" xmlns="http://www.w3.org/2000/svg">
<path opacity="0.3" d="M13.2871 21.1382L34.7273 16.3066V28.9896L13.2871 21.1382Z" fill="#FFCF26"/>
<path d="M27.1766 41.6722V34.0683C27.1766 31.2674 24.6897 28.9893 21.6375 28.9893C21.0289 28.9893 20.5332 29.4429 20.5332 30.0051V41.6722" stroke="white" stroke-width="1.2079" stroke-miterlimit="10"/>
<path d="M27.1766 22.6479C27.1766 20.8131 25.6897 19.3262 23.8549 19.3262C22.0202 19.3262 20.5332 20.8131 20.5332 22.6479C20.5332 24.4827 22.0202 25.9696 23.8549 25.9696C25.6897 25.9696 27.1766 24.4827 27.1766 22.6479Z" stroke="white" stroke-width="1.2079" stroke-miterlimit="10"/>
<rect x="9.05859" y="17.5146" width="4.83159" height="23.554" stroke="white" stroke-width="1.2079" stroke-miterlimit="10"/>
<rect x="34.4238" y="10.2671" width="4.83159" height="30.8014" stroke="white" stroke-width="1.2079" stroke-miterlimit="10"/>
<path opacity="0.3" d="M13.2871 24.7622L34.7273 29.5938V16.9108L13.2871 24.7622Z" fill="#FFCF26"/>
</svg>
