<svg width="101" height="27" viewBox="0 0 101 27" fill="none" xmlns="http://www.w3.org/2000/svg">
<path fill-rule="evenodd" clip-rule="evenodd" d="M62.4308 0C67.1785 0 71.0971 3.54473 71.6916 8.13802L66.983 9.0379C66.5997 7.1912 65.5516 5.50882 63.0253 5.54012C60.4989 5.56359 58.6295 6.99557 58.6295 9.67955V13.0756H66.8109V17.5828H58.6295V26.026H53.0449V10.4934C53.0449 10.0708 53.0606 9.65608 53.0997 9.24918C53.1388 4.13161 57.2999 0 62.4308 0Z" fill="white"/>
<path fill-rule="evenodd" clip-rule="evenodd" d="M24.943 0L15.0331 13.7486V26.026H9.90994V13.7486L0 0H6.37458L12.4832 8.52927L18.5684 0H24.943Z" fill="white"/>
<path fill-rule="evenodd" clip-rule="evenodd" d="M87.8668 0C95.1174 0 100.999 5.88442 100.999 13.1382C100.999 20.392 95.1174 26.2764 87.8668 26.2764C80.6162 26.2764 74.7344 20.392 74.7344 13.1382C74.7344 5.88442 80.6162 0 87.8668 0ZM87.8668 5.50881C83.6588 5.50881 80.2486 8.92052 80.2486 13.1304C80.2486 17.3402 83.6588 20.752 87.8668 20.752C92.0748 20.752 95.485 17.3402 95.485 13.1304C95.485 8.92835 92.0748 5.50881 87.8668 5.50881Z" fill="white"/>
<path fill-rule="evenodd" clip-rule="evenodd" d="M35.9313 0C43.1819 0 49.0637 5.88442 49.0637 13.1382C49.0637 17.4341 46.9988 21.2528 43.8154 23.6472L39.8499 19.6799C42.0712 18.3497 43.5573 15.9161 43.5573 13.1382C43.5573 8.92835 40.1471 5.51664 35.9391 5.51664C31.7311 5.51664 28.3209 8.92835 28.3209 13.1382C28.3209 15.9161 29.807 18.3497 32.0283 19.6799L28.0628 23.6472C24.8716 21.2528 22.8145 17.4341 22.8145 13.1382C22.7988 5.88442 28.6807 0 35.9313 0Z" fill="white" fill-opacity="0.75"/>
<path fill-rule="evenodd" clip-rule="evenodd" d="M35.9334 9.94556C37.6932 9.94556 39.1246 11.3775 39.1246 13.1382C39.1246 14.8988 37.6932 16.3308 35.9334 16.3308C34.1735 16.3308 32.7422 14.8988 32.7422 13.1382C32.7422 11.3697 34.1735 9.94556 35.9334 9.94556Z" fill="white"/>
</svg>
